<svg width="17" height="29" viewBox="0 0 17 29" fill="none" xmlns="http://www.w3.org/2000/svg">
<path d="M6.57697 14.5001L16.1645 4.91259C16.6689 4.40515 16.952 3.71872 16.952 3.00322C16.952 2.28772 16.6689 1.60129 16.1645 1.09385C15.9127 0.839997 15.6131 0.638512 15.2831 0.501014C14.9531 0.363515 14.5991 0.292725 14.2415 0.292725C13.884 0.292725 13.53 0.363515 13.2 0.501014C12.87 0.638512 12.5704 0.839997 12.3186 1.09385L0.8353 12.5772C0.581452 12.829 0.379968 13.1285 0.24247 13.4585C0.104971 13.7886 0.0341797 14.1426 0.0341797 14.5001C0.0341797 14.8576 0.104971 15.2116 0.24247 15.5417C0.379968 15.8717 0.581452 16.1712 0.8353 16.423L12.3186 28.0418C12.5717 28.2928 12.8718 28.4914 13.2018 28.6261C13.5318 28.7609 13.8851 28.8292 14.2415 28.8272C14.598 28.8292 14.9513 28.7609 15.2813 28.6261C15.6113 28.4914 15.9114 28.2928 16.1645 28.0418C16.6689 27.5343 16.952 26.8479 16.952 26.1324C16.952 25.4169 16.6689 24.7305 16.1645 24.223L6.57697 14.5001Z" fill="#BBABC2"/>
</svg>
