<svg width="17" height="29" viewBox="0 0 17 29" fill="none" xmlns="http://www.w3.org/2000/svg">
<path d="M10.423 14.4999L0.835535 24.0874C0.331105 24.5948 0.0479715 25.2813 0.0479715 25.9968C0.0479714 26.7123 0.331105 27.3987 0.835534 27.9062C1.08731 28.16 1.38685 28.3615 1.71689 28.499C2.04692 28.6365 2.40092 28.7073 2.75845 28.7073C3.11598 28.7073 3.46998 28.6365 3.80001 28.499C4.13005 28.3615 4.42959 28.16 4.68137 27.9062L16.1647 16.4228C16.4185 16.171 16.62 15.8715 16.7575 15.5415C16.895 15.2114 16.9658 14.8574 16.9658 14.4999C16.9658 14.1424 16.895 13.7884 16.7575 13.4583C16.62 13.1283 16.4185 12.8288 16.1647 12.577L4.68137 0.958236C4.4283 0.707224 4.12818 0.508636 3.7982 0.373857C3.46822 0.239078 3.11489 0.170756 2.75845 0.172817C2.40202 0.170756 2.04868 0.239078 1.71871 0.373857C1.38873 0.508636 1.0886 0.707224 0.835537 0.958236C0.331107 1.46568 0.0479736 2.15211 0.0479735 2.86761C0.0479734 3.58311 0.331107 4.26955 0.835536 4.77699L10.423 14.4999Z" fill="#BBABC2"/>
</svg>
