<svg width="46" height="46" viewBox="0 0 46 46" fill="none" xmlns="http://www.w3.org/2000/svg">
<path d="M37.2601 24.9165C36.8384 24.9165 36.3976 24.7823 35.9759 24.6865C35.122 24.4983 34.2829 24.2485 33.4651 23.939C32.5759 23.6155 31.5985 23.6323 30.721 23.9861C29.8435 24.34 29.1278 25.0058 28.7117 25.8556L28.2901 26.7181C26.4232 25.6796 24.7078 24.3898 23.1917 22.8848C21.6867 21.3687 20.3969 19.6533 19.3584 17.7865L20.1634 17.2498C21.0132 16.8337 21.6791 16.1181 22.0329 15.2405C22.3868 14.363 22.4035 13.3856 22.0801 12.4965C21.7757 11.6769 21.526 10.8382 21.3326 9.98562C21.2367 9.56395 21.1601 9.12312 21.1026 8.68229C20.8698 7.33223 20.1627 6.10963 19.1085 5.23466C18.0543 4.3597 16.7224 3.88987 15.3526 3.90979H9.60257C8.77655 3.90203 7.95855 4.07235 7.20426 4.40914C6.44998 4.74593 5.77712 5.24129 5.23148 5.86149C4.68584 6.4817 4.28025 7.21219 4.0423 8.00324C3.80435 8.79429 3.73964 9.62732 3.85257 10.4456C4.87365 18.4753 8.54079 25.9359 14.2747 31.649C20.0087 37.3621 27.4826 41.0021 35.5159 41.994H36.2442C37.6576 41.996 39.0223 41.4775 40.0776 40.5373C40.6839 39.995 41.1683 39.3301 41.4987 38.5867C41.8291 37.8433 41.998 37.0383 41.9942 36.2248V30.4748C41.9708 29.1434 41.486 27.8615 40.6226 26.8478C39.7592 25.8341 38.5707 25.1515 37.2601 24.9165ZM38.2184 36.4165C38.2181 36.6886 38.1598 36.9575 38.0474 37.2054C37.935 37.4533 37.7712 37.6743 37.5667 37.854C37.3532 38.0399 37.1029 38.1787 36.832 38.2612C36.5612 38.3438 36.276 38.3683 35.9951 38.3331C28.817 37.4127 22.1495 34.1289 17.0444 28.9995C11.9394 23.8701 8.68719 17.1872 7.80091 10.0048C7.7704 9.72403 7.79713 9.44 7.87949 9.16987C7.96185 8.89974 8.09812 8.64911 8.28007 8.43312C8.45968 8.22867 8.68077 8.06482 8.92863 7.95245C9.17649 7.84009 9.44543 7.7818 9.71757 7.78145H15.4676C15.9133 7.77154 16.3485 7.91731 16.6983 8.19367C17.0482 8.47004 17.2907 8.85971 17.3842 9.29562C17.4609 9.81951 17.5567 10.337 17.6717 10.8481C17.8932 11.8585 18.1878 12.8514 18.5534 13.819L15.8701 15.0648C15.6406 15.1701 15.4343 15.3196 15.2628 15.5048C15.0913 15.6901 14.9581 15.9074 14.8709 16.1442C14.7836 16.3811 14.744 16.6329 14.7543 16.8851C14.7646 17.1373 14.8246 17.385 14.9309 17.614C17.6894 23.5226 22.439 28.2722 28.3476 31.0306C28.8142 31.2223 29.3376 31.2223 29.8042 31.0306C30.0433 30.9451 30.2629 30.813 30.4505 30.6419C30.638 30.4708 30.7897 30.2642 30.8967 30.034L32.0851 27.3506C33.0759 27.705 34.0872 27.9994 35.1134 28.2323C35.6245 28.3473 36.142 28.4431 36.6659 28.5198C37.1018 28.6133 37.4915 28.8558 37.7679 29.2057C38.0442 29.5555 38.19 29.9907 38.1801 30.4365L38.2184 36.4165Z" fill="#6E5C76"/>
</svg>
