<svg width="55" height="55" viewBox="0 0 55 55" fill="none" xmlns="http://www.w3.org/2000/svg">
<path d="M47.8965 4.58334H7.10482C6.43625 4.58334 5.79507 4.84893 5.32232 5.32168C4.84957 5.79443 4.58398 6.43561 4.58398 7.10418V47.8958C4.58398 48.2269 4.64919 48.5547 4.77587 48.8605C4.90256 49.1664 5.08824 49.4443 5.32232 49.6783C5.5564 49.9124 5.8343 50.0981 6.14014 50.2248C6.44598 50.3515 6.77378 50.4167 7.10482 50.4167H29.059V32.6563H23.1007V25.7813H29.059V20.625C28.9356 19.4145 29.0785 18.1916 29.4777 17.0421C29.8769 15.8926 30.5228 14.8444 31.3701 13.971C32.2173 13.0975 33.2453 12.42 34.3821 11.986C35.5189 11.5519 36.7369 11.3718 37.9506 11.4583C39.7343 11.4474 41.5171 11.5392 43.2902 11.7333V17.9208H39.6465C36.759 17.9208 36.209 19.2958 36.209 21.2896V25.7125H43.084L42.1902 32.5875H36.209V50.4167H47.8965C48.2275 50.4167 48.5553 50.3515 48.8612 50.2248C49.167 50.0981 49.4449 49.9124 49.679 49.6783C49.9131 49.4443 50.0987 49.1664 50.2254 48.8605C50.3521 48.5547 50.4173 48.2269 50.4173 47.8958V7.10418C50.4173 6.77314 50.3521 6.44534 50.2254 6.1395C50.0987 5.83365 49.9131 5.55576 49.679 5.32168C49.4449 5.0876 49.167 4.90191 48.8612 4.77523C48.5553 4.64855 48.2275 4.58334 47.8965 4.58334Z" fill="#6E5C76"/>
</svg>
