<svg width="47" height="47" viewBox="0 0 47 47" fill="none" xmlns="http://www.w3.org/2000/svg">
<path d="M43.8958 0.583496H3.10409C2.43552 0.583496 1.79434 0.849083 1.32159 1.32183C0.848839 1.79458 0.583252 2.43576 0.583252 3.10433V43.896C0.583252 44.227 0.648455 44.5548 0.775139 44.8607C0.901823 45.1665 1.08751 45.4444 1.32159 45.6785C1.55567 45.9126 1.83356 46.0983 2.1394 46.2249C2.44525 46.3516 2.77304 46.4168 3.10409 46.4168H25.0583V28.6564H19.0999V21.7814H25.0583V16.6252C24.9348 15.4146 25.0777 14.1917 25.477 13.0422C25.8762 11.8928 26.5221 10.8445 27.3693 9.97111C28.2165 9.09767 29.2446 8.42017 30.3814 7.98613C31.5182 7.55208 32.7362 7.37199 33.9499 7.4585C35.7336 7.44752 37.5164 7.53934 39.2895 7.7335V13.921H35.6458C32.7583 13.921 32.2083 15.296 32.2083 17.2897V21.7127H39.0833L38.1895 28.5877H32.2083V46.4168H43.8958C44.2268 46.4168 44.5546 46.3516 44.8604 46.2249C45.1663 46.0983 45.4442 45.9126 45.6783 45.6785C45.9123 45.4444 46.098 45.1665 46.2247 44.8607C46.3514 44.5548 46.4166 44.227 46.4166 43.896V3.10433C46.4166 2.77329 46.3514 2.44549 46.2247 2.13965C46.098 1.83381 45.9123 1.55591 45.6783 1.32183C45.4442 1.08775 45.1663 0.902067 44.8604 0.775383C44.5546 0.6487 44.2268 0.583496 43.8958 0.583496V0.583496Z" fill="#C1AFC3"/>
</svg>
