<svg width="46" height="46" viewBox="0 0 46 46" fill="none" xmlns="http://www.w3.org/2000/svg">
<path d="M36.4166 7.6665H9.58325C8.05826 7.6665 6.59572 8.27231 5.51739 9.35064C4.43905 10.429 3.83325 11.8915 3.83325 13.4165V32.5832C3.83325 34.1082 4.43905 35.5707 5.51739 36.649C6.59572 37.7274 8.05826 38.3332 9.58325 38.3332H36.4166C37.9416 38.3332 39.4041 37.7274 40.4825 36.649C41.5608 35.5707 42.1666 34.1082 42.1666 32.5832V13.4165C42.1666 11.8915 41.5608 10.429 40.4825 9.35064C39.4041 8.27231 37.9416 7.6665 36.4166 7.6665ZM9.58325 11.4998H36.4166C36.9249 11.4998 37.4124 11.7018 37.7719 12.0612C38.1313 12.4207 38.3333 12.9082 38.3333 13.4165L22.9999 22.7698L7.66659 13.4165C7.66659 12.9082 7.86852 12.4207 8.22796 12.0612C8.58741 11.7018 9.07492 11.4998 9.58325 11.4998ZM38.3333 32.5832C38.3333 33.0915 38.1313 33.579 37.7719 33.9385C37.4124 34.2979 36.9249 34.4998 36.4166 34.4998H9.58325C9.07492 34.4998 8.58741 34.2979 8.22796 33.9385C7.86852 33.579 7.66659 33.0915 7.66659 32.5832V17.7865L22.0033 26.5457C22.2946 26.7139 22.6251 26.8025 22.9616 26.8025C23.298 26.8025 23.6285 26.7139 23.9199 26.5457L38.3333 17.7865V32.5832Z" fill="#6E5C76"/>
</svg>
