<svg width="41" height="34" viewBox="0 0 41 34" fill="none" xmlns="http://www.w3.org/2000/svg">
<path d="M23.184 20.024C23.184 17.464 23.6107 15.1173 24.464 12.984C25.4027 10.8507 26.5547 8.97333 27.92 7.352C29.3707 5.64533 30.9067 4.19466 32.528 2.99999C34.1493 1.80533 35.6853 0.866661 37.136 0.183998C37.8187 0.26933 38.4587 0.52533 39.056 0.951996C39.6533 1.37866 40.0373 1.84799 40.208 2.35999C37.9893 3.81066 35.984 5.60266 34.192 7.73599C32.4 9.86933 31.504 12.6 31.504 15.928C31.504 18.744 32.1867 20.9627 33.552 22.584C35.0027 24.2053 36.88 25.5707 39.184 26.68C38.5867 28.216 37.6053 29.624 36.24 30.904C34.96 32.0987 33.552 32.8667 32.016 33.208C29.8827 32.5253 27.8773 31.1173 26 28.984C24.1227 26.7653 23.184 23.7787 23.184 20.024ZM0.0160003 20.024C0.0160003 17.464 0.442667 15.1173 1.296 12.984C2.23467 10.8507 3.38667 8.97333 4.752 7.352C6.20267 5.64533 7.73867 4.19466 9.36 2.99999C10.9813 1.80533 12.5173 0.866661 13.968 0.183998C14.6507 0.26933 15.2907 0.52533 15.888 0.951996C16.4853 1.37866 16.8693 1.84799 17.04 2.35999C14.8213 3.81066 12.816 5.60266 11.024 7.73599C9.232 9.86933 8.336 12.6 8.336 15.928C8.336 18.744 9.01867 20.9627 10.384 22.584C11.8347 24.2053 13.712 25.5707 16.016 26.68C15.4187 28.216 14.4373 29.624 13.072 30.904C11.792 32.0987 10.384 32.8667 8.848 33.208C6.71467 32.5253 4.70933 31.1173 2.832 28.984C0.954667 26.7653 0.0160003 23.7787 0.0160003 20.024Z" fill="#BBABC2"/>
</svg>
