<svg width="41" height="34" viewBox="0 0 41 34" fill="none" xmlns="http://www.w3.org/2000/svg">
<path d="M17.816 13.976C17.816 16.536 17.3893 18.8827 16.536 21.016C15.5973 23.1493 14.4453 25.0267 13.08 26.648C11.6293 28.3547 10.0933 29.8053 8.47199 31C6.85066 32.1947 5.31466 33.1333 3.864 33.816C3.18133 33.7307 2.54133 33.4747 1.94399 33.048C1.34666 32.6213 0.962661 32.152 0.791994 31.64C3.01066 30.1893 5.016 28.3973 6.808 26.264C8.6 24.1307 9.496 21.4 9.496 18.072C9.496 15.256 8.81333 13.0373 7.448 11.416C5.99733 9.79466 4.12 8.42933 1.816 7.32C2.41333 5.784 3.39467 4.376 4.76 3.096C6.04 1.90133 7.448 1.13333 8.984 0.791997C11.1173 1.47466 13.1227 2.88267 15 5.016C16.8773 7.23467 17.816 10.2213 17.816 13.976ZM40.984 13.976C40.984 16.536 40.5573 18.8827 39.704 21.016C38.7653 23.1493 37.6133 25.0267 36.248 26.648C34.7973 28.3547 33.2613 29.8053 31.64 31C30.0187 32.1947 28.4827 33.1333 27.032 33.816C26.3493 33.7307 25.7093 33.4747 25.112 33.048C24.5147 32.6213 24.1307 32.152 23.96 31.64C26.1787 30.1893 28.184 28.3973 29.976 26.264C31.768 24.1307 32.664 21.4 32.664 18.072C32.664 15.256 31.9813 13.0373 30.616 11.416C29.1653 9.79467 27.288 8.42933 24.984 7.32C25.5813 5.784 26.5627 4.376 27.928 3.096C29.208 1.90133 30.616 1.13333 32.152 0.791999C34.2853 1.47467 36.2907 2.88267 38.168 5.01601C40.0453 7.23467 40.984 10.2213 40.984 13.976Z" fill="#BBABC2"/>
</svg>
